<svg width="243" height="263" viewBox="0 0 243 263" fill="none" xmlns="http://www.w3.org/2000/svg">
<path id="polygon" d="M6 57.6081L123.457 9.5013L236.5 57.551V200.635L123.466 237.205L6 200.586V57.6081Z" fill="#112240" stroke="#64FFDA" stroke-width="12"/>
<path d="M145.033 46.4844H166.708V162.271C166.708 177.918 161.991 190.16 152.558 198.994C143.199 207.829 130.696 212.246 115.048 212.246C98.8011 212.246 86.1481 208.091 77.0889 199.78C68.0296 191.47 63.5 179.827 63.5 164.854H85.0625C85.0625 174.212 87.6081 181.512 92.6992 186.753C97.8652 191.994 105.315 194.614 115.048 194.614C123.957 194.614 131.145 191.807 136.61 186.191C142.151 180.576 144.958 172.715 145.033 162.607V46.4844Z" fill="#64FFDA"/>
</svg>
